<?xml version="1.0" encoding="UTF-8"?>
<svg width="9px" height="15px" viewBox="0 0 9 15" version="1.1" xmlns="http://www.w3.org/2000/svg" xmlns:xlink="http://www.w3.org/1999/xlink">
    <!-- Generator: Sketch 53 (72520) - https://sketchapp.com -->
    <title></title>
    <desc>Created with Sketch.</desc>
    <g id="Homepage" stroke="none" stroke-width="1" fill="none" fill-rule="evenodd">
        <g transform="translate(-1281.000000, -1109.000000)" fill="#4A4A4A" fill-rule="nonzero" id="Presses">
            <g transform="translate(149.000000, 1101.000000)">
                <g id="Group-5" transform="translate(42.000000, 0.000000)">
                    <path d="M1090.375,9.62503427 C1090.375,9.20576467 1090.51725,8.86136422 1090.80176,8.59183361 C1091.08626,8.322303 1091.42317,8.1875377 1091.8125,8.1875377 C1092.20182,8.1875377 1092.54622,8.322303 1092.8457,8.59183361 L1098.59568,14.3418199 C1098.86521,14.6412986 1098.99998,14.9856983 1098.99998,15.3750206 C1098.99998,15.7643428 1098.86521,16.1087425 1098.59568,16.4082212 L1092.8457,22.1582075 C1092.54622,22.4277381 1092.20182,22.5625034 1091.8125,22.5625034 C1091.42317,22.5625034 1091.08626,22.4277381 1090.80176,22.1582075 C1090.51725,21.8886769 1090.375,21.5442765 1090.375,21.1250069 L1090.375,9.62503427 Z M1097.56248,15.3750206 L1091.8125,9.62503427 L1091.8125,21.1250069 L1097.56248,15.3750206 Z" id=""></path>
                </g>
            </g>
        </g>
    </g>
</svg>