<?xml version="1.0" encoding="UTF-8"?>
<svg width="9px" height="15px" viewBox="0 0 9 15" version="1.1" xmlns="http://www.w3.org/2000/svg" xmlns:xlink="http://www.w3.org/1999/xlink">
    <!-- Generator: Sketch 53 (72520) - https://sketchapp.com -->
    <title></title>
    <desc>Created with Sketch.</desc>
    <g id="Homepage" stroke="none" stroke-width="1" fill="none" fill-rule="evenodd">
        <g transform="translate(-1242.000000, -628.000000)" fill="#4A4A4A" fill-rule="nonzero" id="Transferts">
            <g transform="translate(150.000000, 620.000000)">
                <g id="Group-5">
                    <path d="M1100.62498,21.1250069 C1100.62498,21.5442765 1100.48273,21.8886769 1100.19822,22.1582075 C1099.91372,22.4277381 1099.57681,22.5625034 1099.18748,22.5625034 C1098.79816,22.5625034 1098.45376,22.4277381 1098.15428,22.1582075 L1092.4043,16.4082212 C1092.13477,16.1087425 1092,15.7643428 1092,15.3750206 C1092,14.9856983 1092.13477,14.6412986 1092.4043,14.3418199 L1098.15428,8.59183361 C1098.45376,8.322303 1098.79816,8.1875377 1099.18748,8.1875377 C1099.57681,8.1875377 1099.91372,8.322303 1100.19822,8.59183361 C1100.48273,8.86136422 1100.62498,9.20576467 1100.62498,9.62503427 L1100.62498,21.1250069 Z M1093.4375,15.3750206 L1099.18748,21.1250069 L1099.18748,9.62503427 L1093.4375,15.3750206 Z" id=""></path>
                </g>
            </g>
        </g>
    </g>
</svg>